<svg id="Capa_1" data-name="Capa 1" xmlns="http://www.w3.org/2000/svg" xmlns:xlink="http://www.w3.org/1999/xlink" viewBox="0 0 455.68 436.32"><defs><style>.cls-1{fill:url(#Degradado_sin_nombre_6);}.cls-2{fill:#618baa;}.cls-3{fill:#43a7a2;}</style><linearGradient id="Degradado_sin_nombre_6" x1="236.54" y1="157.51" x2="522.8" y2="443.78" gradientUnits="userSpaceOnUse"><stop offset="0.08" stop-color="#638aac"/><stop offset="0.97" stop-color="#3fac9a"/></linearGradient></defs><path class="cls-1" d="M628.61,209.3c-.26-9.86-3-27.35-17.24-41.86-13.62-13.85-30-17.26-40.35-17.88-5.43-10.37-17.09-26.78-38.78-34.08a68.29,68.29,0,0,0-41-.5c-14-11.07-41.89-28.1-79.78-27.85-45.23.35-76.08,25.16-88.7,37.6-14.79.13-52.45,4-76.28,37.76-19.09,27-17.09,55.9-14.08,71-12.93,9.52-28.53,27.44-30.58,53-2.31,28.66,13.29,48.7,22.84,58.13-3,11.9-5.47,33.74,8.71,54.68,13.69,20.22,34.19,26.34,45.78,28.18a138.57,138.57,0,0,1-5,23.22c-5.58,18.18-19.1,35.59-39.08,50.35a12.27,12.27,0,0,0,7.29,22.14c15.91,0,43.95.26,44,.26h.11a12.27,12.27,0,0,0,6-1.54c13-7.23,26.38-19.47,37.11-29.31l3.47-3.18c11-10,20.65-23,29.59-39.66l1.38-2.48c4.65-8.29,8.35-15.18,11.13-21a61.59,61.59,0,0,0,48,6.84c15.43-4.23,29.64-11,38.39-17.88,8.74,1.88,20.74,1.93,33.92-.1a55.22,55.22,0,0,0,39.09-26.78c15.69,5.41,33.67,4,52-4.24,70-31.61,70.55-85.93,70.84-112v-1C657.66,239.4,638.41,218.08,628.61,209.3ZM359.08,412.6l.08.09h0A.39.39,0,0,0,359.08,412.6ZM632.75,271.83c-.29,25.8-.71,64.78-56.41,89.95-7.15,3.22-19.54,7.25-31.78,4,8-21.75,2.63-37.56-4.06-47.48-13.36-19.76-38.29-21.68-62.4-23.53-20.82-1.6-40.49-3.11-50.49-15-4.35-5.19-23.16,10.58-18.8,15.77,16.63,19.83,43.61,21.91,67.41,23.73,19.14,1.47,37.22,2.86,43.94,12.8,5.87,8.7,5,20.09-2.58,33.87a13.23,13.23,0,0,0-1.06,2.59,31,31,0,0,1-24.83,22.44c-16.72,2.56-25.16.46-27-.1a12.29,12.29,0,0,0-16.48,3.63c-2.52,2.36-12.95,9.93-31.6,15-13.87,3.8-29-1.12-38.66-12.57a12.27,12.27,0,0,0-21.45,10.17c.91,4.88-7.45,17.21-9.68,21.5a185.16,185.16,0,0,1-15,24.22c-13.08,17.86-29.73,34.37-48.62,46.08l-9.23-.07c11.24-12.68,19.29-26.5,23.71-40.9,13.73-44.75,1.4-50.57-3.25-52.76a14.25,14.25,0,0,0-6.69-1.41c-2.22-.06-22.34-1-34-18.19a40.92,40.92,0,0,1-6.49-16A28.63,28.63,0,0,1,247,361c.14-1,.19-2.83.77-3.71.81-1.25,2-.59,3.27-.16,14.49,5.09,32.37,6.84,45.81-2,6.32-4.15,10.18-10.86,5.9-18-4.55-7.57-11.69-5.89-18.46-3.39-8.5,3.13-17.79,5.7-26.73,2.75-6.77-2.24-12.21-7.33-16.87-12.74-5.46-6.33-10.24-13.42-12.81-21.37-6.52-20.19,5.93-43,24.21-52.3a12.28,12.28,0,0,0,6.08-14.76c-1.08-3.27-10-32.67,8.39-58.66,12.71-18,31.53-24.22,44.75-26.31a102,102,0,0,0,1.29,45.56,103.47,103.47,0,0,0,32.22,51.68c2.32,2,21.16-14.16,16-18.59a77.45,77.45,0,0,1-22.31-85.28c8.95-9.28,34.58-31.73,73.14-32,35.49-.11,59.95,18.32,68.85,26.33a12.31,12.31,0,0,0,13,2.16c4.66-2,17-6.1,30.85-1.43a42.11,42.11,0,0,1,19.51,14c-13.42,4-24.84,13.41-32.12,25.28-5.61,9.14-15.91,32.56,1.92,35.4a12.77,12.77,0,0,0,1.94.15c11.68,0,12-12.58,15.77-20.64a31.43,31.43,0,0,1,18.44-16.33c6.29-2.06,13.07-2.05,19.67-1.52,20.63,1.67,36.71,16.83,34.43,38.61a12.29,12.29,0,0,0,5,11.23c2.46,1.78,24.08,18.21,23.77,45.92Z" transform="translate(-201.63 -87.13)"/><path class="cls-2" d="M312.46,259.25a8.26,8.26,0,0,1-5-14.59l1.07-.93c5.07-4.52,11-8.67,27.48-9.78a65.43,65.43,0,0,1,9.31.06,1.3,1.3,0,0,0,1.38-1.66,40.79,40.79,0,0,1-.22-19.37c3.05-13,7.89-18,12.38-20.94,4-2.62,9.62-2,12.2,2a8.39,8.39,0,0,1,.94,7.11c-.92,2.79-3.14,3.6-5,5.58-12.72,13.72,3.33,31.75,8.8,44.58.42,1,2.44,5.08-.33,4.24-3.75-1.14-9.85-2.93-13.12-3.6a96.05,96.05,0,0,0-25.27-1.49c-12.2.81-14.94,3.25-17.59,5.62-.5.44-1,.87-1.47,1.28A8.25,8.25,0,0,1,312.46,259.25Z" transform="translate(-201.63 -87.13)"/><path class="cls-3" d="M457.48,264.13A8.26,8.26,0,0,1,463,278.56l-1,1c-4.93,4.67-10.72,9-27.17,10.6a65.33,65.33,0,0,1-9.31.22,1.3,1.3,0,0,0-1.33,1.7,40.85,40.85,0,0,1,.81,19.35c-2.66,13.07-7.35,18.23-11.74,21.31-3.91,2.74-9.56,2.34-12.26-1.6a8.41,8.41,0,0,1-1.16-7.07c.84-2.82,3-3.7,4.81-5.73,12.29-14.1-4.3-31.63-10.15-44.29-.45-1-2.6-5,.2-4.25,3.78,1,9.94,2.63,13.23,3.19a95.74,95.74,0,0,0,25.3.73c12.17-1.18,14.83-3.7,17.41-6.15.48-.45.95-.9,1.43-1.33A8.29,8.29,0,0,1,457.48,264.13Z" transform="translate(-201.63 -87.13)"/></svg>